<svg xmlns="http://www.w3.org/2000/svg" viewBox="0 0 18 18" aria-hidden="true">
  <path fill="#4285F4" d="M17.64 9.2c0-.64-.06-1.25-.16-1.84H9v3.48h4.84a4.14 4.14 0 0 1-1.8 2.71v2.25h2.91c1.7-1.57 2.69-3.89 2.69-6.6z"/>
  <path fill="#34A853" d="M9 18c2.43 0 4.47-.8 5.96-2.2l-2.91-2.25c-.81.54-1.84.86-3.05.86-2.35 0-4.34-1.59-5.05-3.72H.96v2.34A9 9 0 0 0 9 18z"/>
  <path fill="#FBBC05" d="M3.95 10.69A5.41 5.41 0 0 1 3.67 9c0-.58.1-1.14.28-1.69V4.97H.96A9 9 0 0 0 0 9c0 1.45.35 2.83.96 4.03l2.99-2.34z"/>
  <path fill="#EA4335" d="M9 3.58c1.32 0 2.5.45 3.43 1.34l2.57-2.57C13.46.92 11.43 0 9 0A9 9 0 0 0 .96 4.97l2.99 2.34C4.66 5.17 6.65 3.58 9 3.58z"/>
</svg>